<svg xmlns="http://www.w3.org/2000/svg" width="256" height="256" fill="none" viewBox="0 0 256 256"><rect width="256" height="256" fill="#242938" rx="60"/><path fill="#FFFFFF" transform="translate(59.01 145.85) scale(0.07800)" d="M10.0 0.0 207.0 -717.0H392.0L590.0 0.0H445.0L402.0 -177.0H195.0L151.0 0.0ZM269.0 -473.0 225.0 -297.0H373.0L331.0 -473.0Q323.0 -507.0 315.5 -540.0Q308.0 -573.0 300.0 -607.0Q293.0 -573.0 285.0 -540.0Q277.0 -507.0 269.0 -473.0Z M875.0 10.0Q821.0 10.0 768.5 -0.5Q716.0 -11.0 670.0 -33.0V-165.0Q726.0 -137.0 778.0 -123.5Q830.0 -110.0 879.0 -110.0Q931.0 -110.0 964.0 -127.5Q997.0 -145.0 997.0 -191.0Q997.0 -223.0 979.5 -241.0Q962.0 -259.0 929.0 -275.5Q896.0 -292.0 850.0 -316.0Q804.0 -341.0 766.0 -370.0Q728.0 -399.0 706.0 -438.5Q684.0 -478.0 684.0 -534.0Q684.0 -630.0 748.5 -677.0Q813.0 -724.0 918.0 -724.0Q960.0 -724.0 1018.0 -714.5Q1076.0 -705.0 1132.0 -678.0L1086.0 -565.0Q1037.0 -586.0 997.0 -595.0Q957.0 -604.0 926.0 -604.0Q877.0 -604.0 854.5 -584.0Q832.0 -564.0 832.0 -527.0Q832.0 -498.0 846.0 -480.0Q860.0 -462.0 888.0 -447.5Q916.0 -433.0 959.0 -411.0Q1018.0 -382.0 1059.5 -354.5Q1101.0 -327.0 1123.0 -291.0Q1145.0 -255.0 1145.0 -199.0Q1145.0 -130.0 1111.5 -83.5Q1078.0 -37.0 1017.0 -13.5Q956.0 10.0 875.0 10.0Z M1240.0 0.0V-714.0H1436.0L1497.0 -309.0H1501.0L1573.0 -714.0H1759.0V0.0H1629.0V-163.0Q1629.0 -202.0 1631.0 -251.5Q1633.0 -301.0 1636.0 -353.5Q1639.0 -406.0 1642.0 -453.0Q1645.0 -500.0 1647.0 -534.5Q1649.0 -569.0 1650.0 -582.0H1644.0L1571.0 -168.0H1430.0L1351.0 -583.0H1345.0Q1346.0 -568.0 1349.0 -533.0Q1352.0 -498.0 1355.5 -450.5Q1359.0 -403.0 1362.5 -350.5Q1366.0 -298.0 1368.0 -247.5Q1370.0 -197.0 1370.0 -155.0V0.0Z"/><rect x="104" y="178" width="48" height="8" rx="4" fill="#818CF8"/></svg>
