<svg xmlns="http://www.w3.org/2000/svg" xmlns:xlink="http://www.w3.org/1999/xlink" width="273.00" height="48" viewBox="0 0 1456 256" fill="none">
  <svg x="0" width="256" height="256" viewBox="0 0 256 256"><rect width="256" height="256" rx="60" fill="#394AAB"/>
<path d="M134.001 33C169.144 33 199.828 52.0863 216.262 80.4561L216.102 80.183L174.753 103.991C166.607 90.1977 151.672 80.8892 134.54 80.6975L134.001 80.6945C107.875 80.6945 86.6945 101.874 86.6945 127.999C86.6945 136.543 88.9723 144.552 92.9335 151.469C101.088 165.704 116.416 175.306 134.001 175.306C151.693 175.306 167.109 165.582 175.222 151.195L175.025 151.54L216.311 175.458C200.057 203.588 169.794 222.615 135.059 222.994L134.001 223C98.746 223 67.9753 203.796 51.582 175.276C43.5791 161.353 39 145.212 39 127.999C39 75.5334 81.5323 33 134.001 33Z" fill="white"/></svg>
  <svg x="300" width="256" height="256" viewBox="0 0 256 256"><rect width="256" height="256" fill="#242938" rx="60"/><path fill="#F7A41D" d="M92.1177 71.8824L70.9413 97.7647L60.353 81.2941L92.1177 71.8824Z"/><path fill="#F7A41D" d="M92.1176 71.8825L76.8235 84.8236L70.9412 97.7648H63.8824V157.765H74.4706L61.5294 163.647L52.1176 183.647H38V71.8825H92.1176Z"/><path fill="#F7A41D" d="M74.4708 157.765L52.1178 183.647L42.7061 170.706L74.4708 157.765Z"/><path fill="#F7A41D" d="M103.882 71.8822L110.941 88.3528L81.5293 97.7646L103.882 71.8822Z"/><path fill="#F7A41D" d="M103.882 71.8822H168.588V97.7646H81.5293L103.882 83.647V71.8822Z"/><path fill="#F7A41D" d="M174.471 157.765L152.118 183.647L143.882 168.353L174.471 157.765Z"/><path fill="#F7A41D" d="M174.47 157.765L155.647 168.353L152.117 183.647H87.4116V157.765H174.47Z"/><path fill="#F7A41D" d="M214.47 46L99.1764 183.647L41.5293 210.706L156.823 71.8824L214.47 46Z"/><path fill="#F7A41D" d="M203.883 71.8824L202.706 93.0588L181.53 98.9412L203.883 71.8824Z"/><path fill="#F7A41D" d="M218 71.8825V183.647H162.706L179.177 169.53L185.059 157.765H192.118V98.9413H181.53L193.294 88.3531L203.883 71.8825H218Z"/><path fill="#F7A41D" d="M185.059 157.765L190.941 175.412L162.706 183.647L185.059 157.765Z"/></svg>
  <svg x="600" width="256" height="256" viewBox="0 0 256 256"><rect width="256" height="256" fill="#242938" rx="60"/><path fill="#FFFFFF" transform="translate(59.01 145.85) scale(0.07800)" d="M10.0 0.0 207.0 -717.0H392.0L590.0 0.0H445.0L402.0 -177.0H195.0L151.0 0.0ZM269.0 -473.0 225.0 -297.0H373.0L331.0 -473.0Q323.0 -507.0 315.5 -540.0Q308.0 -573.0 300.0 -607.0Q293.0 -573.0 285.0 -540.0Q277.0 -507.0 269.0 -473.0Z M875.0 10.0Q821.0 10.0 768.5 -0.5Q716.0 -11.0 670.0 -33.0V-165.0Q726.0 -137.0 778.0 -123.5Q830.0 -110.0 879.0 -110.0Q931.0 -110.0 964.0 -127.5Q997.0 -145.0 997.0 -191.0Q997.0 -223.0 979.5 -241.0Q962.0 -259.0 929.0 -275.5Q896.0 -292.0 850.0 -316.0Q804.0 -341.0 766.0 -370.0Q728.0 -399.0 706.0 -438.5Q684.0 -478.0 684.0 -534.0Q684.0 -630.0 748.5 -677.0Q813.0 -724.0 918.0 -724.0Q960.0 -724.0 1018.0 -714.5Q1076.0 -705.0 1132.0 -678.0L1086.0 -565.0Q1037.0 -586.0 997.0 -595.0Q957.0 -604.0 926.0 -604.0Q877.0 -604.0 854.5 -584.0Q832.0 -564.0 832.0 -527.0Q832.0 -498.0 846.0 -480.0Q860.0 -462.0 888.0 -447.5Q916.0 -433.0 959.0 -411.0Q1018.0 -382.0 1059.5 -354.5Q1101.0 -327.0 1123.0 -291.0Q1145.0 -255.0 1145.0 -199.0Q1145.0 -130.0 1111.5 -83.5Q1078.0 -37.0 1017.0 -13.5Q956.0 10.0 875.0 10.0Z M1240.0 0.0V-714.0H1436.0L1497.0 -309.0H1501.0L1573.0 -714.0H1759.0V0.0H1629.0V-163.0Q1629.0 -202.0 1631.0 -251.5Q1633.0 -301.0 1636.0 -353.5Q1639.0 -406.0 1642.0 -453.0Q1645.0 -500.0 1647.0 -534.5Q1649.0 -569.0 1650.0 -582.0H1644.0L1571.0 -168.0H1430.0L1351.0 -583.0H1345.0Q1346.0 -568.0 1349.0 -533.0Q1352.0 -498.0 1355.5 -450.5Q1359.0 -403.0 1362.5 -350.5Q1366.0 -298.0 1368.0 -247.5Q1370.0 -197.0 1370.0 -155.0V0.0Z"/><rect x="104" y="178" width="48" height="8" rx="4" fill="#818CF8"/></svg>
  <svg x="900" width="256" height="256" viewBox="0 0 256 256"><rect width="256" height="256" fill="#242938" rx="60"/><g transform="translate(22.24 23.83) scale(1.64141)"><path d="M27.363 76.605c-6.078 0-9.094-3.645-10.277-7.453 1.32 6.195 8.449 12.23 30.945 14.91 21.258 2.551 35.09-3.848 39.77-6.824 0 0 3.156-1.367 1.266.742 0 0-13.398 12.129-39.609 12.285-26.262.129-47.09-12.863-46.984-26.043-.125-13.125 20.723-26.145 46.984-26.039 26.262.125 39.609 12.281 39.609 12.281 1.895 2.105-1.266.75-1.266.75-4.668-2.969-18.457-8.82-39.77-6.824-20.934 1.98-27.77 8.977-30.086 13.648-.871 1.813-1.27 3.523-1.367 5.242.566-4.496 3.414-9.766 10.766-9.766 8.34 0 10.871 6.824 10.871 11.496 0 4.727-2.547 11.551-10.871 11.551zm84.496-4.539h11.086v3.961h-15.77v-21.89h4.66v17.902zm-17.113-7.828h9.309v11.816h-3.105l-.465-2.746c-1.18 1.344-2.891 3.324-6.941 3.324-5.371 0-10.227-3.777-10.227-11.445 0-5.984 3.387-11.605 10.926-11.605 6.832 0 9.523 4.359 9.793 7.352h-4.66c0-.852-1.582-3.598-4.875-3.598-3.32 0-6.406 2.258-6.406 7.875 0 5.988 3.32 7.512 6.512 7.512 1.023 0 4.441-.395 5.383-4.816h-5.187V64.22zm-67.273-8.031c-4.844 0-7.75 3.746-7.75 8.926 0 5.152 2.918 8.926 7.75 8.926 4.844 0 7.75-3.75 7.75-8.926 0-5.152-2.918-8.926-7.75-8.926zm12.539 5.832h2.262v1.977h.055c.57-.805 1.66-2.387 4.25-2.387 3.789 0 6.512 3.152 6.512 7.09 0 3.348-1.965 7.719-6.836 7.719-1.91 0-3.164-.883-3.785-1.875h-.055v7.035h-2.402zm6.082 12.387c2.617 0 4.391-2.227 4.391-5.301 0-1.797-.738-5.355-4.445-5.355-3.461 0-3.844 3.664-3.844 5.934 0 3.715 2.375 4.711 3.898 4.711zm21.527-2.754c-.082.664-.738 2.652-2.535 3.824-.656.43-1.582.969-3.871.969-4.008 0-6.402-2.973-6.402-7.035 0-4.34 2.125-7.773 6.836-7.773 4.117 0 6.133 3.215 6.133 8.191H57.34c0 2.922 1.391 4.605 4.145 4.605 2.262 0 3.602-1.711 3.684-2.758h2.398zm-2.539-3.719c-.137-2.168-1.066-4.176-3.984-4.176-2.207 0-3.949 2.008-3.949 4.176zm15.984 8.086h-2.402v-8.613c0-2.43-.711-3.664-3.051-3.664-1.363 0-3.762.859-3.762 4.656v7.613h-2.402V62.016h2.266v1.977h.055c.52-.75 1.852-2.383 4.305-2.383 2.207 0 4.992.883 4.992 4.875v9.555" fill="#D7DCE5"/><path d="M26.289 75.031c-6.137 0-9.203-3.645-10.387-7.453 1.336 6.191 8.555 12.23 31.27 14.91 21.473 2.543 35.465-3.848 40.199-6.828 0 0 3.191-1.363 1.277.746 0 0-13.508 12.129-40.094 12.285C22.02 88.816.926 75.828 1.086 62.648.957 49.523 22.02 36.504 48.555 36.609c26.531.125 40.094 12.281 40.094 12.281 1.914 2.105-1.277.75-1.277.75-4.719-2.969-18.676-8.82-40.199-6.828-21.207 1.984-28.094 8.98-30.41 13.652a13.44 13.44 0 00-1.383 5.242c.57-4.496 3.449-9.77 10.871-9.77 8.398 0 10.98 6.828 10.98 11.551s-2.574 11.5-10.98 11.5zm85.57-4.543h11.195v3.965h-15.93V52.555h4.707v17.91zm-17.277-7.824H104v11.813h-3.137l-.469-2.738c-1.195 1.34-2.926 3.324-7.051 3.324-5.437 0-10.387-3.777-10.387-11.445 0-5.984 3.422-11.605 11.031-11.605 6.891 0 9.633 4.359 9.902 7.352h-4.707c0-.852-1.605-3.598-4.93-3.598-3.359 0-6.461 2.258-6.461 7.875 0 5.988 3.359 7.512 6.566 7.512 1.035 0 4.488-.395 5.438-4.816h-5.242v-3.687zm-68.348-8.031c-4.898 0-7.855 3.746-7.855 8.926 0 5.148 2.949 8.926 7.855 8.926 4.898 0 7.859-3.75 7.859-8.926 0-5.152-2.949-8.926-7.859-8.926zm12.703 5.828h2.285v1.98h.055c.582-.805 1.68-2.387 4.301-2.387 3.832 0 6.566 3.152 6.566 7.09 0 3.344-1.988 7.719-6.891 7.719-1.93 0-3.195-.883-3.832-1.875h-.055v7.035H38.94V60.488zm6.133 12.395c2.648 0 4.441-2.23 4.441-5.305 0-1.801-.75-5.359-4.496-5.359-3.496 0-3.883 3.668-3.883 5.938 0 3.715 2.398 4.711 3.938 4.711zm21.742-2.762c-.082.672-.742 2.652-2.562 3.828-.66.43-1.598.969-3.91.969-4.055 0-6.457-2.973-6.457-7.039 0-4.336 2.152-7.77 6.941-7.77 4.16 0 6.188 3.215 6.188 8.191H56.465c0 2.922 1.402 4.602 4.191 4.602 2.289 0 3.637-1.707 3.719-2.754h2.43zm-2.57-3.715c-.141-2.172-1.078-4.176-4.027-4.176-2.234 0-4 2.004-4 4.176zm16.145 8.082h-2.426v-8.609c0-2.434-.719-3.664-3.09-3.664-1.379 0-3.805.855-3.805 4.656v7.613h-2.43V60.441h2.289v1.977h.055c.523-.75 1.871-2.383 4.355-2.383 2.23 0 5.043.883 5.043 4.875v9.504" fill="#5586A4"/><path d="M127.754 74.242A2.015 2.015 0 01126.719 76c-.321.183-.664.27-1.035.27s-.711-.09-1.031-.27a2.06 2.06 0 01-.758-.742 1.97 1.97 0 01-.277-1.016 1.98 1.98 0 01.277-1.012 2.07 2.07 0 011.789-1.012 2.074 2.074 0 011.793 1.012 1.98 1.98 0 01.277 1.012zm-.398 0c0-.449-.164-.836-.492-1.152a1.62 1.62 0 00-1.176-.484 1.62 1.62 0 00-1.18.484 1.54 1.54 0 00-.488 1.152 1.55 1.55 0 00.488 1.156c.328.32.719.48 1.18.48a1.61 1.61 0 001.176-.48c.328-.32.492-.703.492-1.156zm-2.605-1.082h.988c.277 0 .484.055.609.168s.188.258.188.441a.54.54 0 01-.145.379c-.094.105-.246.184-.453.23a.597.597 0 01.188.098.876.876 0 01.176.227c.004.004.125.215.359.621h-.652l-.426-.738c-.07-.082-.145-.121-.215-.121-.02 0-.039 0-.07.008v.852h-.551zm.551.918h.238c.156 0 .27-.023.336-.074s.098-.113.098-.195-.031-.148-.094-.195-.168-.078-.32-.078h-.258zm0 0" fill="#AEB6C4"/><path d="M127.754 73.719a1.95 1.95 0 01-.277 1.012 1.972 1.972 0 01-.758.742 2.07 2.07 0 01-1.035.273c-.367 0-.711-.094-1.031-.273s-.57-.426-.758-.742a1.95 1.95 0 01-.277-1.012c0-.359.094-.699.277-1.016a2.02 2.02 0 01.758-.738c.32-.18.664-.27 1.031-.27s.719.09 1.035.27.574.426.758.738.277.656.277 1.016zm-.398 0a1.53 1.53 0 00-.492-1.152c-.324-.324-.719-.484-1.176-.484s-.855.16-1.18.484a1.54 1.54 0 00-.488 1.152 1.55 1.55 0 00.488 1.156 1.62 1.62 0 001.18.477c.461 0 .852-.156 1.176-.477s.492-.703.492-1.156zm-2.605-1.086h.988c.277 0 .484.059.609.168s.188.262.188.445c0 .145-.047.27-.145.379-.094.102-.246.18-.453.23a.597.597 0 01.188.098.92.92 0 01.176.223c.004.004.125.215.359.625h-.652l-.426-.738c-.07-.082-.145-.125-.215-.125-.02 0-.039.004-.07.008v.855h-.551zm.551.922h.238c.156 0 .27-.027.336-.078a.24.24 0 00.098-.195.23.23 0 00-.094-.191c-.062-.051-.168-.078-.32-.078h-.258zm0 0" fill="#5586A4"/></g></svg>
  <svg x="1200" width="256" height="256" viewBox="0 0 256 256"><rect width="256" height="256" fill="#242938" rx="60"/><g transform="translate(23.00 23.01) scale(1.64063)"><path fill="#ac162c" d="M26.2398 46.9389c-13.34-.2454-24.2711 3.1375-26.0036 9.4352-1.6681 6.066 5.6577 13.1722 16.987 18.0316-5.0894-4.1208-7.5652-8.75-6.1686-12.842 2.7057-7.9252 18.884-10.8325 36.1403-6.492 10.3502 2.6023 18.808 7.6504 24.3323 12.642-2.5067-6.6206-14.6609-16.0585-31.396-19.2935-4.7304-.9145-9.4447-1.3995-13.8914-1.4813Z"/><path fill="#FFFFFF" d="M18.7313 57.1713l7.5939 23.472h5.8188l7.7907-23.472h-5.3254l-5.292 16.5028h-.0655l-5.2274-16.5028Z M66.8658 57.1713v2.3262c1.9914 1.7785 3.5709 3.5892 4.6695 5.3343v-7.6605z M58.6748 60.7157v19.9287h4.6683v-17.355a58.2565 58.2565 0 0 0-4.6684-2.5737z M93.2678 63.1880a14.285 14.285 0 0 0-2.8104.2795c-.9318.1852-1.7706.4982-2.516.9365-.7456.4383-1.3587 1.018-1.8407 1.7416s-.757 1.6337-.8226 2.7289v.0034h4.6708c.0874-.9215.3946-1.5782.9204-1.9728.5257-.3957 1.2492-.5925 2.1696-.5925.4164 0 .8042.0277 1.1666.0829.3623.0552.6797.1644.9535.329.2738.1645.4925.3945.657.6902.1645.2956.2472.696.2472 1.1998.0219.482-.1207.849-.4278 1.101-.3072.2531-.7226.444-1.2495.5764-.5258.1311-1.1273.23-1.8072.2956-.6799.0656-1.3701.1541-2.0719.2623a19.5833 19.5833 0 0 0-2.0869.444c-.6902.1863-1.3034.466-1.8407.8387-.5383.3727-.9754.8709-1.316 1.4956-.3393.6246-.5096 1.4196-.5096 2.3837 0 .8766.1484 1.6323.444 2.2673.2945.6362.7065 1.162 1.2333 1.5785.5246.4164 1.139.7236 1.8407.9203.6995.1967 1.4563.2957 2.2674.2957 1.0514 0 2.0824-.1541 3.0901-.4602 1.0078-.3071 1.8855-.8434 2.631-1.6119.0218.2865.061.565.115.8388a6.779 6.779 0 0 0 .2139.8053h4.734c-.2198-.3509-.3739-.8767-.4613-1.5785-.0874-.7006-.1312-1.4355-.1312-2.2028v-8.8434c0-1.0308-.2301-1.858-.6903-2.4826-.4613-.6235-1.0537-1.1112-1.7762-1.462-.7236-.351-1.5219-.5868-2.3997-.7076-.8766-.1208-1.7417-.1807-2.5965-.1807z M113.4828 63.1880c-.9848 0-1.9498.2243-2.892.674-.9422.4487-1.7095 1.1667-2.3009 2.1526h-.0977v-2.3664h-4.4383v16.9962h4.6684v-8.9087c0-1.7314.2841-2.9763.8548-3.731.5706-.7558 1.4897-1.1342 2.761-1.1342 1.1182 0 1.8957.345 2.3352 1.0353.4371.6903.657 1.7361.657 3.1396v9.599h4.6672v-10.454c0-1.0525-.0931-2.0108-.2795-2.877-.1864-.8652-.5098-1.599-.97-2.2018-.4613-.6028-1.0905-1.0735-1.89-1.414-.8008-.3394-1.8247-.5096-3.0752-.5096z M50.9164 63.6470v8.9088c0 1.7314-.2841 2.975-.8547 3.7319-.5695.757-1.4898 1.1344-2.761 1.1344-1.1182 0-1.8958-.344-2.334-1.0353-.4384-.6903-.6582-1.7373-.6582-3.1396v-9.599h-4.6684v10.455c0 1.0515.0932 2.011.2784 2.876.1864.8663.5096 1.6001.9709 2.203.4602.6016 1.0905 1.0687 1.89 1.3966.8008.3279 1.8247.4923 3.074.4923.9871 0 1.9512-.2184 2.8934-.6568.9433-.4383 1.7095-1.1504 2.302-2.1374h.0977v2.3664h4.4394V63.6471Z M78.1767 63.6482l-5.8844 6.1133.0115.658 6.4652 10.2238h5.6543l-7.1336-10.7497 6.4113-6.2454z M66.8611 65.7270v14.9163h4.6673v-11.083c-1.2057-1.4703-3.1764-3.0027-4.6673-3.8333Z M96.0598 72.3277v1.742c-.001.2623-.0277.6133-.0829 1.0516-.0529.4383-.2024.8708-.4428 1.2976-.2393.428-.613.795-1.117 1.102-.5039.306-1.2171.4591-2.1375.4591-.3727 0-.7339-.0321-1.0848-.0977-.3508-.0656-.6568-.1806-.9203-.3451-.2623-.1645-.4707-.389-.6249-.6743-.153-.2842-.23-.635-.23-1.0514 0-.4383.077-.7995.23-1.0848.1542-.2841.3568-.52.6087-.7064.252-.1864.5489-.3335.8882-.444a8.6337 8.6337 0 0 1 1.0354-.2624 18.7078 18.7078 0 0 1 1.118-.1645 14.674 14.674 0 0 0 1.0678-.1645c.3405-.0655.658-.1473.9536-.2473.2951-.0988.5408-.2343.7385-.4099z M125.4518 75.6667c-1.4265 0-2.5644 1.1076-2.5644 2.4881 0 1.4104 1.1379 2.5184 2.5644 2.5184 1.4403 0 2.5482-1.108 2.5482-2.5184 0-1.3805-1.1079-2.4882-2.5482-2.4882z M125.4508 76.1670c1.1078 0 1.9119.895 1.9119 2.0029 0 1.0917-.804 1.9716-1.8957 1.9716-1.1228 0-1.942-.8788-1.942-1.9867 0-1.0917.819-1.9867 1.9258-1.9878z M125.4357 76.8952c-.4095 0-.728.03-.9558.076v2.4882h.5785v-1.002h.2726c.3187 0 .4694.122.5154.3946.076.2876.121.5154.1969.6063h.6224c-.061-.091-.1059-.2428-.1818-.6224-.076-.3337-.213-.5154-.4557-.6062v-.03c.3026-.0908.5154-.3036.5154-.5763 0-.2427-.1057-.4406-.2426-.5464-.183-.1058-.3948-.1818-.8653-.1818z M125.3896 77.3046c.3647 0 .5316.152.5316.3797 0 .2589-.2577.3647-.5763.3647h-.274v-.7143c.061-.015.1668-.0301.3187-.0301z"/></g></svg>
</svg>
