<svg xmlns="http://www.w3.org/2000/svg" xmlns:xlink="http://www.w3.org/1999/xlink" width="385.50" height="48" viewBox="0 0 2056 256" fill="none">
  <svg x="0" width="256" height="256" viewBox="0 0 256 256"><rect width="256" height="256" fill="#242938" rx="60"/><path fill="#FFFFFF" transform="translate(37.55 136.02) scale(0.06600)" d="M317.0 -556.0Q419.0 -556.0 473.5 -507.5Q528.0 -459.0 528.0 -364.0V0.0H423.0L394.0 -74.0H390.0Q354.0 -30.0 315.5 -10.0Q277.0 10.0 208.0 10.0Q136.0 10.0 88.0 -32.0Q40.0 -74.0 40.0 -161.0Q40.0 -246.0 102.0 -289.5Q164.0 -333.0 287.0 -338.0L378.0 -341.0V-358.0Q378.0 -407.0 355.5 -426.5Q333.0 -446.0 294.0 -446.0Q257.0 -446.0 218.0 -434.0Q179.0 -422.0 141.0 -405.0L97.0 -508.0Q140.0 -530.0 195.5 -543.0Q251.0 -556.0 317.0 -556.0ZM321.0 -250.0Q249.0 -248.0 221.5 -227.0Q194.0 -206.0 194.0 -168.0Q194.0 -133.0 213.5 -116.5Q233.0 -100.0 266.0 -100.0Q313.0 -100.0 345.5 -128.0Q378.0 -156.0 378.0 -208.0V-253.0Z M779.0 -279.0 603.0 -546.0H772.0L878.0 -372.0L985.0 -546.0H1154.0L976.0 -279.0L1162.0 0.0H993.0L878.0 -187.0L763.0 0.0H594.0Z M1733.0 -546.0V0.0H1617.0L1598.0 -70.0H1589.0Q1563.0 -28.0 1518.0 -9.0Q1473.0 10.0 1421.0 10.0Q1334.0 10.0 1280.5 -37.5Q1227.0 -85.0 1227.0 -190.0V-546.0H1379.0V-228.0Q1379.0 -170.0 1399.5 -140.5Q1420.0 -111.0 1465.0 -111.0Q1533.0 -111.0 1557.5 -157.0Q1582.0 -203.0 1582.0 -290.0V-546.0Z M2511.0 -556.0Q2605.0 -556.0 2653.0 -508.5Q2701.0 -461.0 2701.0 -356.0V0.0H2551.0V-318.0Q2551.0 -381.0 2530.0 -408.5Q2509.0 -436.0 2467.0 -436.0Q2408.0 -436.0 2384.5 -393.5Q2361.0 -351.0 2361.0 -273.0V0.0H2210.0V-318.0Q2210.0 -379.0 2190.0 -407.5Q2170.0 -436.0 2128.0 -436.0Q2066.0 -436.0 2043.5 -389.5Q2021.0 -343.0 2021.0 -256.0V0.0H1870.0V-546.0H1986.0L2008.0 -476.0H2013.0Q2036.0 -513.0 2078.0 -534.5Q2120.0 -556.0 2176.0 -556.0Q2237.0 -556.0 2277.5 -535.0Q2318.0 -514.0 2341.0 -474.0H2346.0Q2373.0 -515.0 2416.0 -535.5Q2459.0 -556.0 2511.0 -556.0Z"/><rect x="104" y="178" width="48" height="8" rx="4" fill="#818CF8"/></svg>
  <svg x="300" width="256" height="256" viewBox="0 0 256 256"><rect width="256" height="256" rx="60" fill="#242938"/>
<path fill-rule="evenodd" clip-rule="evenodd" d="M121.352 30.2542C120.143 37.8918 114.086 38.2979 111.67 30.9039C110.026 25.8743 105.957 26.0149 106.459 31.0836C107.224 38.808 101.2 41.352 97.4295 34.8971C96.0731 32.5759 94.8003 31.4887 93.8631 31.8516C93.062 32.1622 92.0922 32.4165 91.7082 32.4165C91.3238 32.4165 91.1831 34.2524 91.3952 36.4965C92.0821 43.7726 87.6549 45.9131 83.1362 40.4891C79.6944 36.3574 75.9687 37.6609 77.732 42.3793C80.3447 49.3713 75.7818 53.1055 70.1208 48.6079C68.0273 46.9445 67.0916 46.7481 65.4629 47.6287C63.0272 48.9449 63.0614 48.6277 64.9459 52.4437C67.8369 58.2966 63.8197 61.4603 57.9432 57.958C53.0265 55.0278 50.3229 57.6748 53.4064 62.3999C57.3055 68.3741 53.7537 72.852 47.5832 69.743C43.2886 67.5787 41.1941 70.7516 44.2911 74.729C48.453 80.0734 45.3841 85.2892 39.4152 83.0168C38.0945 82.5138 36.9488 82.2296 36.8694 82.3849C36.7894 82.5402 36.1593 83.4168 35.4688 84.333C34.4105 85.7374 34.708 86.4983 37.3654 89.1824C41.2866 93.1436 39.8936 96.6489 34.1728 97.2159C28.5787 97.7702 27.627 101.014 32.2743 103.685C37.1126 106.466 34.8779 112.614 29.029 112.614C25.9872 112.614 26.836 116.942 30.2642 118.912C34.4628 121.326 34.4598 125.535 30.2573 127.137C27.0165 128.373 25.6919 133.933 28.6382 133.933C34.4795 133.933 35.2092 140.974 29.5915 143.132C27.8547 143.799 27.2311 144.622 27.6427 145.704C27.9754 146.58 28.2472 147.716 28.2472 148.228C28.2472 148.741 29.5136 149.16 31.0613 149.16C36.6258 149.16 38.1273 154.201 33.6393 157.816C30.4995 160.344 31.6141 164.636 35.1665 163.697C40.4319 162.307 43.1184 167.899 39.2062 172.105C36.0755 175.471 37.8308 177.909 43.4591 178.012C48.5547 178.106 49.7924 180.79 46.8391 185.343C44.4219 189.07 47.0401 192.119 51.2723 190.506C56.4272 188.54 59.5072 192.94 56.4242 197.865C54.6247 200.739 58.1026 203.17 61.4856 201.404C66.9963 198.525 70.4913 201.091 68.4491 206.516C67.1455 209.98 67.1068 209.816 69.5375 211.13C71.1557 212.005 72.012 211.933 73.3065 210.813C77.9573 206.789 82.1273 208.908 81.1785 214.813C80.3905 219.719 83.4328 221.237 86.9439 217.691C90.9887 213.605 96.7336 216.693 95.3105 222.188C95.0079 223.358 95.4004 224.383 96.2813 224.724C98.9919 225.775 100.26 225.319 101.587 222.813C104.227 217.831 108.802 219.208 110.018 225.349C110.806 229.327 115.138 229.672 116.092 225.835C117.476 220.262 122.899 220.303 124.903 225.902C126.466 230.269 130.363 230.809 131.36 226.796C132.791 221.038 137.76 220.317 140.405 225.483C142.543 229.659 146.012 229.098 146.953 224.424C148.35 217.484 154.352 216.779 156.405 223.313C156.83 224.664 157.623 225.231 158.574 224.863C159.398 224.544 160.463 224.282 160.941 224.282C161.418 224.282 161.946 222.112 162.114 219.46C162.503 213.347 166.214 212.091 169.9 216.824C173.106 220.94 175.484 219.098 175.486 212.498C175.487 206.526 178.234 205.318 183.268 209.076C187.181 211.998 189.789 210.124 188.091 205.611C185.434 198.554 188.735 195.284 194.842 198.923C200.071 202.04 201.92 199.68 198.783 193.894C195.533 187.902 200.108 184.192 205.79 188.212C209.841 191.078 212.307 186.514 208.74 182.753C204.097 177.857 205.342 175.047 212.154 175.047C218.893 175.047 219.767 173.232 215.235 168.654C210.098 163.465 211.929 159.891 219.418 160.489C225.073 160.942 226.306 157.381 221.229 155.256C213.555 152.046 215.708 145.648 224.379 145.896C226.877 145.969 229.533 142.014 227.472 141.291C217.937 137.946 216.481 131.877 224.835 130.293C229.602 129.39 229.771 125.357 225.081 124.41C217.069 122.791 217.365 116.154 225.541 114.092C230.45 112.855 228.858 109.111 223.318 108.864C215.42 108.512 213.889 102.261 220.95 99.197C222.478 98.5335 223.864 97.9092 224.029 97.8087C226.427 96.3525 222.6 92.6953 219.639 93.6131C210.536 96.4352 208.358 89.4803 216.569 83.8091C220.366 81.1865 217.015 77.8547 212.497 79.7612C204.873 82.9792 201.205 77.1497 207.104 71.1906C211.082 67.1731 208.416 63.349 203.778 66.4184C197.457 70.6013 191.958 64.6144 197.049 59.0945C201.101 54.7019 197.32 51.4945 192.71 55.4125C186.644 60.5675 181.299 56.8291 184.727 49.8301C187.583 43.9995 184.596 40.2764 180.885 45.0416C174.607 53.104 169.161 49.1403 172.448 38.9009C172.99 37.2116 172.639 36.6249 170.793 36.135C169.506 35.7934 168.308 35.9361 168.133 36.4523C165.182 45.1553 155.158 43.5965 157.35 34.7752C158.282 31.0262 158.273 31.0054 155.367 30.2202C153.397 29.6882 152.873 29.9258 152.873 31.3521C152.873 33.9702 149.025 38.5075 146.805 38.5075C144.374 38.5075 142.823 35.5665 142.823 30.9602C142.823 28.9695 142.407 27.3407 141.9 27.3407C141.392 27.3407 140.262 27.0635 139.387 26.7245C138.331 26.3154 137.797 26.6737 137.797 27.7899C137.797 36.7954 128.77 38.4486 127.152 29.739C126.179 24.5003 122.207 24.853 121.352 30.2542L121.352 30.2542ZM144.312 47.1506C178.939 54.5587 174.632 78.6963 136.29 92.1182C85.9423 109.744 45.4369 94.1237 72.25 67.4234C89.3569 50.388 119.635 41.8702 144.313 47.1506L144.312 47.1506ZM183.525 76.0655C186.014 78.8445 185.73 84.2117 182.973 86.4658C176.111 92.0792 166.755 82.3509 172.974 76.0685C175.629 73.387 181.123 73.3855 183.525 76.0656V76.0655ZM195.476 93.7213C212.39 100.86 214.084 139.945 198.717 168.525C189.362 185.925 173.537 198.764 164.325 196.429C137.147 189.539 161.594 97.1109 191.851 92.3559C192.007 92.3315 193.639 92.9457 195.476 93.7213V93.7213ZM67.0499 101.972C72.1842 107.158 67.4464 116.164 60.7644 113.921C54.7235 111.895 53.7436 103.978 59.1653 101.007C62.9986 98.9057 64.1544 99.0473 67.0499 101.972V101.972ZM132.522 108.724C141.747 111.07 149.149 122.379 147.286 131.281C143.107 151.246 116.176 154.169 109.09 135.427C103.209 119.874 116.557 104.663 132.522 108.724V108.724ZM74.6385 126.58C105.397 141.875 135.628 186.779 125.448 202.052C113.48 220.011 70.4676 197.563 54.0788 164.806C38.7016 134.07 49.4626 114.062 74.6385 126.58V126.58ZM147.391 190.228C151.465 194.343 150.324 199.651 144.877 201.93C138.993 204.392 133.276 197.684 136.272 191.832C138.72 187.051 143.555 186.353 147.391 190.228" fill="white"/></svg>
  <svg x="600" width="256" height="256" viewBox="0 0 256 256"><rect width="256" height="256" fill="#242938" rx="60"/><g transform="translate(42.00 50.89) scale(1.43333)"><defs></defs>
    <g id="t2_Page-1" stroke="none" stroke-width="1" fill="none" fill-rule="evenodd">
        <g id="t2_01" transform="translate(-900.000000, -275.000000)" fill="#FFFFFF">
            <g id="t2_Group-Copy-2" transform="translate(900.000000, 275.000000)">
                <g id="t2_Group">
                    <g id="t2_Mark-Copy">
                        <polygon id="t2_Line-Copy-3" transform="translate(37.000000, 67.000000) rotate(-300.000000) translate(-37.000000, -67.000000) " points="35 74.0516078 35 76 39 76 39 74.0516078 39 59.9483922 39 58 35 58 35 59.9483922"></polygon>
                        <polygon id="t2_Line" transform="translate(83.000000, 67.000000) rotate(-60.000000) translate(-83.000000, -67.000000) " points="81 74.0516078 81 76 85 76 85 74.0516078 85 59.9483922 85 58 81 58 81 59.9483922"></polygon>
                        <path d="M80,54 C80,42.954305 71.045695,34 60,34 C48.954305,34 40,42.954305 40,54 C40,65.045695 48.954305,74 60,74 C71.045695,74 80,65.045695 80,54 Z M44.2328042,54 C44.2328042,45.2920182 51.2920182,38.2328042 60,38.2328042 C68.7079818,38.2328042 75.7671958,45.2920182 75.7671958,54 C75.7671958,62.7079818 68.7079818,69.7671958 60,69.7671958 C51.2920182,69.7671958 44.2328042,62.7079818 44.2328042,54 Z" id="t2_Oval-Copy-2"></path>
                        <circle id="t2_Oval-Copy-6" cx="24" cy="75" r="3"></circle>
                        <circle id="t2_Oval-Copy-12" cx="60" cy="96" r="3"></circle>
                        <circle id="t2_Oval-Copy-13" cx="60" cy="12" r="3"></circle>
                        <circle id="t2_Oval-Copy-14" cx="96" cy="33" r="3"></circle>
                        <circle id="t2_Oval-Copy-16" cx="24" cy="33" r="3"></circle>
                        <circle id="t2_Oval-Copy-15" cx="96" cy="75" r="3"></circle>
                        <ellipse id="t2_Oval-Copy-6" cx="60" cy="54" rx="3" ry="3"></ellipse>
                        <polygon id="t2_Line" points="2 52 -4.42312853e-13 52 -4.54747351e-13 56 2 56 40 56 42 56 42 52 40 52"></polygon>
                        <polygon id="t2_Line" points="80 52 78 52 78 56 80 56 118 56 120 56 120 52 118 52"></polygon>
                        <polygon id="t2_Line-Copy-4" points="72.8299167 70.3885725 71.8231708 68.660434 68.3668937 70.6739258 69.3736396 72.4020643 88.5018116 105.236696 89.5085575 106.964834 92.9648345 104.951343 91.9580886 103.223204"></polygon>
                        <polygon id="t2_Line-Copy-4" points="32.5813684 2.14002423 31.5746225 0.411885722 28.1183455 2.42537751 29.1250914 4.15351602 48.2532633 36.9881477 49.2600092 38.7162862 52.7162862 36.7027944 51.7095403 34.9746559"></polygon>
                        <polygon id="t2_Line-Copy-7" points="90.7095403 4.15351602 91.7162862 2.42537751 88.2600092 0.411885722 87.2532633 2.14002423 68.1250914 34.9746559 67.1183455 36.7027944 70.5746225 38.7162862 71.5813684 36.9881477"></polygon>
                        <polygon id="t2_Line-Copy-7" points="50.8265046 72.5969413 51.8332505 70.8688028 48.3769735 68.855311 47.3702276 70.5834495 28.2420556 103.418081 27.2353097 105.14622 30.6915868 107.159712 31.6983326 105.431573"></polygon>
                        <polygon id="t2_Line" points="58 87.0167635 58 89 62 89 62 87.0167635 62 72.9832365 62 71 58 71 58 72.9832365"></polygon>
                        <polygon id="t2_Line" points="58 35.0516078 58 37 62 37 62 35.0516078 62 20.9483922 62 19 58 19 58 20.9483922"></polygon>
                        <polygon id="t2_Line-Copy-2" transform="translate(37.000000, 41.000000) rotate(-60.000000) translate(-37.000000, -41.000000) " points="35 48.0516078 35 50 39 50 39 48.0516078 39 33.9483922 39 32 35 32 35 33.9483922"></polygon>
                        <polygon id="t2_Line-Copy" transform="translate(83.000000, 41.000000) rotate(-300.000000) translate(-83.000000, -41.000000) " points="81 48.0516078 81 50 85 50 85 48.0516078 85 33.9483922 85 32 81 32 81 33.9483922"></polygon>
                    </g>
                </g>
            </g>
        </g>
    </g></g></svg>
  <svg x="900" width="256" height="256" viewBox="0 0 256 256"><rect width="256" height="256" fill="#242938" rx="60"/><g transform="translate(15.23 15.40) scale(5.00426)"><path fill-rule="evenodd" clip-rule="evenodd" d="M36.3002 10.0998L37.1002 9.6998L38.1002 9.0998L36.9002 6.9998L35.9002 7.5998L34.3002 8.4998C32.5002 7.3998 30.5002 6.7998 28.3002 6.7998C21.8002 6.7998 16.5002 12.0998 16.5002 18.5998C16.5002 18.6998 16.5002 18.7998 16.5002 18.7998L10.2002 22.3998L9.2002 22.9998L10.4002 25.0998L11.4002 24.4998L16.8002 21.3998C17.0002 22.0998 17.2002 22.6998 17.5002 23.3998L10.3002 27.5998L9.3002 28.1998L10.5002 30.2998L11.5002 29.6998L18.7002 25.4998C19.1002 26.0998 19.6002 26.5998 20.1002 27.1998L19.5002 27.5998L18.5002 28.1998L17.5002 28.7998L10.3002 32.9998L9.3002 33.5998L10.5002 35.6998L11.5002 35.0998L18.7002 30.8998L19.7002 30.2998L20.7002 29.6998L22.2002 28.8998C24.0002 29.9998 26.1002 30.5998 28.3002 30.5998C34.8002 30.5998 40.1002 25.2998 40.1002 18.7998C40.0002 15.1998 38.6002 12.1998 36.3002 10.0998ZM28.3002 27.8998C27.0002 27.8998 25.8002 27.5998 24.7002 27.1998L27.9002 25.2998L28.9002 24.6998L27.7002 22.5998L26.7002 23.1998L22.3002 25.6998C21.7002 25.1998 21.2002 24.6998 20.8002 24.0998L26.6002 20.7998C26.0002 20.2998 25.5002 19.5998 25.5002 18.6998L19.7002 22.0998C19.2002 20.9998 19.0002 19.7998 19.0002 18.5998C19.0002 13.4998 23.1002 9.2998 28.3002 9.2998C29.5002 9.2998 30.7002 9.4998 31.8002 9.9998L28.8002 11.7998L27.8002 12.3998L29.0002 14.4998L30.0002 13.8998L34.2002 11.4998C34.7002 11.8998 35.2002 12.3998 35.7002 12.9998L29.9002 16.3998C30.6002 16.7998 31.1002 17.4998 31.2002 18.3998L37.0002 15.0998C37.5002 16.1998 37.8002 17.4998 37.8002 18.7998C37.5002 23.6998 33.4002 27.8998 28.3002 27.8998Z" fill="#F5A623"/>
<path d="M6.8 27.8998C7.79411 27.8998 8.6 27.0939 8.6 26.0998C8.6 25.1057 7.79411 24.2998 6.8 24.2998C5.80589 24.2998 5 25.1057 5 26.0998C5 27.0939 5.80589 27.8998 6.8 27.8998Z" fill="#F5A623"/>
<path fill-rule="evenodd" clip-rule="evenodd" d="M6.8 34.5996C5.8 34.5996 5 35.3996 5 36.3996C5 37.3996 5.8 38.1996 6.8 38.1996C7.8 38.1996 8.6 37.3996 8.6 36.3996C8.5 35.3996 7.7 34.5996 6.8 34.5996Z" fill="#F5A623"/>
<path d="M28.3 20.3998C29.2941 20.3998 30.1 19.5939 30.1 18.5998C30.1 17.6057 29.2941 16.7998 28.3 16.7998C27.3059 16.7998 26.5 17.6057 26.5 18.5998C26.5 19.5939 27.3059 20.3998 28.3 20.3998Z" fill="#F5A623"/></g></svg>
  <svg x="1200" width="256" height="256" viewBox="0 0 256 256"><rect width="256" height="256" fill="#242938" rx="60"/><path fill="#FFFFFF" transform="translate(45.83 136.31) scale(0.06600)" d="M511.0 -198.0Q511.0 -103.0 442.5 -46.5Q374.0 10.0 248.0 10.0Q135.0 10.0 46.0 -33.0V-174.0Q97.0 -152.0 151.5 -133.5Q206.0 -115.0 260.0 -115.0Q316.0 -115.0 339.5 -136.5Q363.0 -158.0 363.0 -191.0Q363.0 -218.0 344.5 -237.0Q326.0 -256.0 295.0 -272.5Q264.0 -289.0 224.0 -308.0Q199.0 -320.0 170.0 -336.5Q141.0 -353.0 114.5 -377.5Q88.0 -402.0 71.0 -437.0Q54.0 -472.0 54.0 -521.0Q54.0 -617.0 119.0 -670.5Q184.0 -724.0 296.0 -724.0Q352.0 -724.0 402.5 -711.0Q453.0 -698.0 508.0 -674.0L459.0 -556.0Q410.0 -576.0 371.0 -587.0Q332.0 -598.0 291.0 -598.0Q248.0 -598.0 225.0 -578.0Q202.0 -558.0 202.0 -526.0Q202.0 -488.0 236.0 -466.0Q270.0 -444.0 337.0 -412.0Q392.0 -386.0 430.5 -358.0Q469.0 -330.0 490.0 -292.0Q511.0 -254.0 511.0 -198.0Z M1276.0 -358.0Q1276.0 -239.0 1233.5 -151.0Q1191.0 -63.0 1101.0 -22.0L1274.0 170.0H1077.0L950.0 10.0Q947.0 10.0 943.0 10.0Q939.0 10.0 936.0 10.0Q820.0 10.0 744.5 -36.0Q669.0 -82.0 632.5 -165.0Q596.0 -248.0 596.0 -359.0Q596.0 -469.0 632.5 -551.5Q669.0 -634.0 744.5 -679.5Q820.0 -725.0 937.0 -725.0Q1053.0 -725.0 1128.5 -679.5Q1204.0 -634.0 1240.0 -551.5Q1276.0 -469.0 1276.0 -358.0ZM757.0 -358.0Q757.0 -246.0 799.5 -182.5Q842.0 -119.0 936.0 -119.0Q1032.0 -119.0 1073.5 -182.5Q1115.0 -246.0 1115.0 -358.0Q1115.0 -470.0 1073.5 -534.0Q1032.0 -598.0 937.0 -598.0Q842.0 -598.0 799.5 -534.0Q757.0 -470.0 757.0 -358.0Z M1407.0 0.0V-714.0H1560.0V-126.0H1849.0V0.0Z M2061.0 -279.0 1885.0 -546.0H2054.0L2160.0 -372.0L2267.0 -546.0H2436.0L2258.0 -279.0L2444.0 0.0H2275.0L2160.0 -187.0L2045.0 0.0H1876.0Z"/><rect x="104" y="178" width="48" height="8" rx="4" fill="#818CF8"/></svg>
  <svg x="1500" width="256" height="256" viewBox="0 0 256 256"><rect width="256" height="256" fill="#242938" rx="60"/><path fill="#FFC131" d="M164.9 99.4198C164.9 104.72 162.813 109.802 159.096 113.55C155.38 117.298 150.34 119.403 145.085 119.403C139.829 119.403 134.789 117.298 131.073 113.55C127.357 109.802 125.269 104.72 125.269 99.4198C125.269 94.1199 127.357 89.0371 131.073 85.2895C134.789 81.5419 139.829 79.4365 145.085 79.4365C150.34 79.4365 155.38 81.5419 159.096 85.2895C162.813 89.0371 164.9 94.1199 164.9 99.4198V99.4198Z"/><path fill="#24C8DB" d="M111.759 136.661C100.815 136.661 91.9429 145.608 91.9429 156.644C91.9429 167.681 100.815 176.628 111.759 176.628C122.702 176.628 131.574 167.681 131.574 156.644C131.574 145.608 122.702 136.661 111.759 136.661Z"/><path fill="#FFC131" fill-rule="evenodd" d="M186.157 163.457C178.194 168.649 169.333 172.285 160.037 174.175C162.731 166.429 163.624 158.163 162.649 150.014C170.531 147.235 177.652 142.623 183.436 136.55C189.221 130.478 193.505 123.116 195.941 115.063C198.377 107.009 198.898 98.4898 197.46 90.1955C196.022 81.9012 192.667 74.0652 187.665 67.3228C182.664 60.5804 176.157 55.1214 168.673 51.3882C161.189 47.655 152.938 45.7527 144.589 45.8355C136.24 45.9183 128.028 47.9839 120.618 51.8648C113.208 55.7458 106.81 61.3328 101.941 68.1731C91.8585 69.3171 82.0472 72.2055 72.938 76.7114C76.539 64.9947 82.8882 54.3263 91.4473 45.6104C100.006 36.8946 110.523 30.3884 122.106 26.6432C133.689 22.898 145.997 22.0244 157.986 24.0963C169.975 26.1682 181.291 31.1246 190.977 38.5453C200.662 45.966 208.431 55.6323 213.624 66.7248C218.817 77.8173 221.282 90.0089 220.809 102.266C220.336 114.524 216.939 126.485 210.907 137.137C204.875 147.789 196.385 156.818 186.157 163.457ZM73.8387 90.6089L92.3933 92.8797C92.8142 89.2662 93.5989 85.7054 94.7352 82.2522C87.3959 83.9729 80.3527 86.7895 73.8387 90.6089V90.6089Z" clip-rule="evenodd"/><path fill="#24C8DB" fill-rule="evenodd" d="M70.5959 92.6072C78.6076 87.3622 87.5318 83.6946 96.8967 81.7981C94.0639 89.5427 93.0466 97.8434 93.9243 106.05C86.0698 108.868 78.9828 113.51 73.2362 119.601C67.4897 125.692 63.2448 133.061 60.8445 141.113C58.4443 149.164 57.9561 157.672 59.4195 165.949C60.8828 174.225 64.2566 182.039 69.2682 188.758C74.2797 195.476 80.7885 200.912 88.2683 204.624C95.7482 208.337 103.989 210.223 112.326 210.13C120.662 210.037 128.859 207.967 136.256 204.088C143.652 200.209 150.04 194.629 154.903 187.8C164.979 186.685 174.791 183.827 183.905 179.353C180.295 191.057 173.942 201.712 165.384 210.416C156.825 219.12 146.313 225.616 134.737 229.355C123.162 233.094 110.863 233.965 98.883 231.895C86.9027 229.825 75.5933 224.875 65.9121 217.463C56.2309 210.052 48.4628 200.397 43.2655 189.316C38.0682 178.236 35.5946 166.056 36.0541 153.807C36.5136 141.558 39.8927 129.601 45.9053 118.948C51.9179 108.295 60.3871 99.26 70.5959 92.6072V92.6072ZM182.915 165.455L182.554 165.637L182.915 165.455Z" clip-rule="evenodd"/></svg>
  <svg x="1800" width="256" height="256" viewBox="0 0 256 256"><rect width="256" height="256" fill="#242938" rx="60"/><g fill="#FFFFFF" transform="translate(43.00 43.00) scale(3.40000)"><path d="M50 16h-1v4h-1v1h-1v1h-1v1h-2v1h-1v1h-1v1h-1v1h-2v9h5v1h1v9h-1v1h-1v2h-1v1h-1v-1h-1v1h-2v-1h-1v-1h-1v-1h-1v-1h-1v-1h-1v-1h-1v-1h-1v-1h-1v-1h-1v-1h-1v-1h-1v-1h-1v-1h-1v-1h-1v-1h-1v-1h-1v-1h-1v-1h-1v-1h-1v-1h-1v-1h-2v1h-1v1h-1v1h-1v1h-1v1h-1v1h-1v1H9v1H8v1H7v1H6v1H5v1H4v1H3v1H2v2h1v1h1v1h1v1h1v1h1v1H5v-1H4v-1H3v-1H2v-1H1v-1H0v-2h1v-1h1v-1h1v-1h1v-1h1v-1h1v-1h1v-1h1v-1h1v-1h1v-1h1v-1h1v-1h1v-1h1v-1h1v-1h1v-1h2v1h1v-1h-1v-1h-1v-2h1v-1h1v-1h2v-1h7v-1h1v-1h1v-1h1v-1h1v-1h1v-1h4v-1h3v-1h10zM39 49h1v-1h-1zm2-8h-3v1h-1v3h-1v-1h-1v1h1v1h1v1h1v1h1v-1h1v-1h1v-1h1v-5h-1zm-7 3h1v-1h-1zm-1-1h1v-1h-1zm-1-1h1v-1h-1zm-1-1h1v-1h-1zm-1-1h1v-1h-1zm-1-1h1v-1h-1zm-1-1h1v-1h-1zm-1-1h1v-1h-1zm-1-1h1v-1h-1zm-1-1h1v-1h-1zm-1-1h1v-1h-1zm-5-5h1v1h1v1h1v1h1v1h1v-2h1v-2h1v-1h-2v1h-4v-1h-1zm14-11h-1v2h1v1h2v-1h1v-2h-1v-1h-2zM18 40h1v1h1v2h-1v-1h-1v-1h-1v-2h1zm0-7h1v4h-4v-1h-1v-1h3v-3h1zM29 1h1v9h1v1h1v2h1v2h-1v1h-1v1h-1v1h-1v1h-1v1h-3v-1h-1v-1h-2v-1h-1v-1h-1v-1h-6v-1h-1V9h1V8h1V7h1V6h1V5h1V4h1V3h1V2h1V1h2V0h6z"/></g></svg>
</svg>
